<?xml version="1.0" encoding="UTF-8" standalone="no"?>
<svg
   xmlns:dc="http://purl.org/dc/elements/1.1/"
   xmlns:cc="http://creativecommons.org/ns#"
   xmlns:rdf="http://www.w3.org/1999/02/22-rdf-syntax-ns#"
   xmlns:svg="http://www.w3.org/2000/svg"
   xmlns="http://www.w3.org/2000/svg"
   id="svg4220"
   version="1.1"
   viewBox="0 0 33.560169 32.543751"
   height="32.543751mm"
   width="33.560169mm">
  <defs
     id="defs4214" />
  <metadata
     id="metadata4217">
    <rdf:RDF>
      <cc:Work
         rdf:about="">
        <dc:format>image/svg+xml</dc:format>
        <dc:type
           rdf:resource="http://purl.org/dc/dcmitype/StillImage" />
        <dc:title></dc:title>
      </cc:Work>
    </rdf:RDF>
  </metadata>
  <g
     transform="translate(-82.664297,-164.46588)"
     id="layer1">
    <rect
       y="164.4641"
       x="82.66806"
       height="32.545517"
       width="33.541626"
       id="rect4643"
       style="fill:#ffffff;stroke-width:0.26458332" />
    <g
       style="stroke-width:6;stroke-linecap:round"
       transform="matrix(0.26458333,0,0,0.26458333,74.197518,164.06901)"
       id="g4373">
      <path
         style="fill:#ff0000;stroke-linejoin:round"
         d="m 81,41 -1.5,61 c 0,13 -13,19.5 -19.5,19.5 -6.5,0 -19.5,-6.5 -19.5,-19.5 L 42,41 Z"
         id="path4357" />
      <g
         style="fill:none;stroke:#000000"
         id="g4371">
        <path
           style="stroke-linejoin:round"
           d="M 35,4.5 H 87 C 80.5,11 80.5,16.204 80.5,24 v 78 c 0,13 -13,19.5 -19.5,19.5 -6.5,0 -19.5,-6.5 -19.5,-19.5 V 24 c 0,-7.7958 0,-13 -6.5,-19.5 z"
           id="path4359" />
        <g
           style="fill-rule:evenodd"
           id="g4369">
          <path
             d="M 79.5,30.5 H 60"
             id="path4361" />
          <path
             d="M 79.5,50 H 60"
             id="path4363" />
          <path
             d="M 79.5,69.5 H 60"
             id="path4365" />
          <path
             d="M 79.5,89 H 60"
             id="path4367" />
        </g>
      </g>
    </g>
    <g
       transform="matrix(0.26458333,0,0,0.26458333,83.239757,165.47934)"
       id="g4425">
      <g
         id="layer2" />
      <g
         id="layer1-3">
        <g
           transform="matrix(1.4674046,1.7111502,-1.7111502,1.4674046,65.169481,-25.598513)"
           id="g3285"
           style="fill:#00ff00;fill-opacity:1;stroke:none">
          <path
             style="display:inline;overflow:visible;visibility:visible;fill:#ff0000;fill-opacity:1;fill-rule:nonzero;stroke:none;stroke-width:3;stroke-linecap:round;stroke-linejoin:round;stroke-miterlimit:4;stroke-dasharray:none;stroke-dashoffset:0;stroke-opacity:1;marker:none;marker-start:none;marker-mid:none;marker-end:none;enable-background:accumulate"
             d="M 20.807873,27.841218 42,3 c -3,3 -3,5.4019442 -3,9 v 36 c 0,6 -6,9 -9,9 -3,0 -9,-3 -9,-9 -0.132727,-11.897253 -0.330007,-7.376509 -0.192127,-20.158782 z"
             id="path3287" />
          <path
             style="fill:#00ff00;fill-opacity:1;fill-rule:evenodd;stroke:none;stroke-width:2.9706378;stroke-linecap:round;stroke-linejoin:miter;stroke-miterlimit:4;stroke-dasharray:none;stroke-opacity:1"
             d="M 38.688421,15.134044 31.178953,14.945531"
             id="path3289" />
          <path
             id="path3291"
             d="M 38.52927,24.205662 31.019802,24.017149"
             style="fill:#00ff00;fill-opacity:1;fill-rule:evenodd;stroke:none;stroke-width:2.9706378;stroke-linecap:round;stroke-linejoin:miter;stroke-miterlimit:4;stroke-dasharray:none;stroke-opacity:1" />
          <path
             style="fill:#00ff00;fill-opacity:1;fill-rule:evenodd;stroke:none;stroke-width:2.9706378;stroke-linecap:round;stroke-linejoin:miter;stroke-miterlimit:4;stroke-dasharray:none;stroke-opacity:1"
             d="M 38.52927,33.118129 31.019802,32.929616"
             id="path3293" />
          <path
             id="path3295"
             d="M 38.52927,42.030596 31.019802,41.842083"
             style="fill:#00ff00;fill-opacity:1;fill-rule:evenodd;stroke:none;stroke-width:2.9706378;stroke-linecap:round;stroke-linejoin:miter;stroke-miterlimit:4;stroke-dasharray:none;stroke-opacity:1" />
        </g>
        <path
           style="display:inline;overflow:visible;visibility:visible;fill:none;fill-opacity:1;fill-rule:nonzero;stroke:#000000;stroke-width:6;stroke-linecap:round;stroke-linejoin:round;stroke-miterlimit:4;stroke-dasharray:none;stroke-dashoffset:0;stroke-opacity:1;marker:none;marker-start:none;marker-mid:none;marker-end:none;enable-background:accumulate"
           d="M 86.449312,9.6044056 121.66702,50.672012 c -9.53566,-0.731237 -13.64575,2.793387 -19.80256,8.073189 L 40.263047,111.57177 C 29.996146,120.37619 16.058268,114.51151 11.656054,109.37805 7.2538405,104.24461 3.5828638,89.575489 13.849765,80.771063 L 75.451174,27.944497 C 81.607988,22.664694 85.718075,19.14007 86.449312,9.6044056 Z"
           id="rect3162" />
        <path
           style="fill:none;fill-rule:evenodd;stroke:#000000;stroke-width:6;stroke-linecap:round;stroke-linejoin:miter;stroke-miterlimit:4;stroke-dasharray:none;stroke-opacity:1"
           d="M 96.044424,62.810955 85.347571,49.684501"
           id="path3270" />
        <path
           id="path3272"
           d="M 80.287983,75.850356 69.59113,62.723904"
           style="fill:none;fill-rule:evenodd;stroke:#000000;stroke-width:6;stroke-linecap:round;stroke-linejoin:miter;stroke-miterlimit:4;stroke-dasharray:none;stroke-opacity:1" />
        <path
           style="fill:none;fill-rule:evenodd;stroke:#000000;stroke-width:6;stroke-linecap:round;stroke-linejoin:miter;stroke-miterlimit:4;stroke-dasharray:none;stroke-opacity:1"
           d="M 65.037413,88.928552 54.340561,75.802098"
           id="path3274" />
        <path
           id="path3276"
           d="M 49.786844,102.00675 39.089989,88.880294"
           style="fill:none;fill-rule:evenodd;stroke:#000000;stroke-width:6;stroke-linecap:round;stroke-linejoin:miter;stroke-miterlimit:4;stroke-dasharray:none;stroke-opacity:1" />
      </g>
    </g>
  </g>
</svg>
